<mxfile modified="2021-08-10T06:54:59.635Z" host="app.diagrams.net" agent="5.0 (Windows NT 10.0; Win64; x64) AppleWebKit/537.36 (KHTML, like Gecko) Chrome/92.0.4515.107 Safari/537.36" etag="FpgRQahJRORfeaFWmuW3" version="14.9.5" type="github">
  <diagram id="Ht1M8jgEwFfnCIfOTk4-" name="Page-1">
    <mxGraphModel dx="2062" dy="1122" grid="1" gridSize="10" guides="1" tooltips="1" connect="1" arrows="1" fold="1" page="1" pageScale="1" pageWidth="1169" pageHeight="827" math="0" shadow="0">
      <root>
        <mxCell id="0" />
        <mxCell id="1" parent="0" />
        <mxCell id="ZFzZCjT-4XjI5NJuBLVP-22" value="" style="shape=image;verticalLabelPosition=bottom;labelBackgroundColor=#ffffff;verticalAlign=top;aspect=fixed;imageAspect=0;image=data:image/png,iVBORw0KGgoAAAANSUhEUgAAAFEAAABeCAYAAABb2fjjAAAgAElEQVR4Ae2cB3hUVdrH2W/tZVc/V12E9DLJZPokIaGouLt+NsTeyyooFhAVsaCIKCIqYl1Q6VWkh947gVADoaX3nkxmJpnMzG2/77kzCWQCJKFseb7PeZ7/c889c+655/zmfc/73pJ04rfPeRPodN49/NYBv0G8AEbwG8TfIF4AAhegi98s8RSIMlCEIiwAqeaUb09X8RvEJiqKXILiXoxsfxWl8WGkoktRPIWnY3ZK3f9viIodxb0FqaofUokOqSwWufo25IouiJmdkBs2nwLsdBX//yAqLhT3NuTqIYiFUYgF1yGXRiBXWJGr/4JcFo2U2wkxpxOyffHpmJ1S9/8EoowiZCJVDUXM7YyY3Qmp4EqkkhCf9UmlcUjlichlOh9AKa8TUs5/IdmmnwLsdBX/pyEqjXuR7RMQc/WIRzv5XFQquAqpqDNSURek4mCkojCkkhh8IPMuRVIB5/3eD7H6+9MxO6Xu/xxEpfEgUukQxOxIP7jDnZCyOiHlXoyUdyVS3tVIedcg5V+HVHAjUkFXpKJwpNwr/O1yfo+Uq0L8PVLFqFOAna7i/wRERbQjlryPWBCHUvk7qPkdSsl/IWf/HilAFyNlX4aUcyVS7h+Qcq9Fyv+zv6yC9rW9CCnnIqTsixCLXzkds1Pq/uMglgtQ0KCwv1ZiQanA3BIvcwq9fLHPxdoy8ZQJqBWKtwHnik+pHnMNjllX07DyCryHLkGp/j1K5e+RMi8KVNbFSFmXIWVfjZR9FVLmfyFl/R7JV38RUlYTxNw7T3u+1pX/VohuBTIaYEaxxOjDXp7f5qL3Eju6X2rRz6uhV0otvVJq6L6wike3OcloUBPhM3+kylxsX/ahcsB11Ay7FscPV+NadAVywSV+QJkXIx1XpUK9GCnzUn/5xL5a19Qm62LE44Yzn6zFN/9yiI0ybHUofHZYpM+SRnpMdtD9JxvdJtaSOKOW7gtruWWljd5rbdy6toabV1YxscTbYsjtF8XdP9Aw4jLsT19Gww9XIJdd4odz7BKkE7oY6VizWtY3lTMvQTh8PciN7Z7wXwaxWoQ5VQr3r/PQ/XsH8SNtxH9WS9L4OnpMt3Pzr3ZuWVzHrSts3Lau1g9wTRXzqoV2J3G6Bkp5OvKSu5BVaLmXIB25BOloxyUfvwQh/VIUb9npug+o+6dDLPXC91UKd6x0kzzGjunNWszDbXT72kHyBAfdJ9vpOcvOzfPt3JJSx21rbNy6poZb1laz9BwBNs9Q8aQhHfsd0iEV4qVnJfnopX6IjZnN3Z1x+0+FOLkG+h6T6TnOjr5/Nfo3aokfZSfhCwfdvnGQNN5B9yl2es32Q+y9zMYtK2vpuaKKxTXnZoEnZ6ogliUi7euElHHZ2evIZYjpl6HU7z3Z5RlK/xSIu2oVniuCe1K9WN+sIfbZKkzv1mEZYSf+EwcJnzv9ECc46DHFQa9ZDm5eYOeWpTaSF1Qxt+p8AYJU/iFieiekQ5d3SKKv3WVIBy9DLYsZlyOkX45s33QGdCerLzjE77Jlbi+CPts8xD1R7gNofqcOswpxuAPrJ04fxMSvnSSNd9JjspOeMx0+d06cWc3oTPfJ0Z1jSZHsCAcvRjxwKeLBKxAPXt6GrkBMvxJx/2VI+Vcj5V7tK/tAHrgcqXJGu6O4YBDV5OPdgzK3ZcF9+7zonikn5tlK3xpoekuFaPdBjP/YScIYJ4njnCT94KT7RCe9ZjpInGTj2S317Q64Iw3EwkGI6ZcjHriiHV2JeEAFeAVSzlU0plyPe8O1yLlX+Op8xxd92u4pLwhEUYGn98j0OKBwX6aEsX8Z0Y+XYxxci2GwDeOQOkzvOLC878Q6sp740fUkjq0n6bt6uv/spNuPdpKn2altOw1sdzJqA8Wd7QewXwWhAmpLVyEe+APigU5I2y6lYegfsQ+7AiHjD0iZVyLuuxIxd2i7570gEJ/bJ2NdJ9GnAm793kb43SUYBlZjGFjjh/imHdPbDszD6rGOqCd+VD2JX9ST9E09yePrMX5ex6JKqd3BdqSBcORWxH1X+bX3KsQzad/ViAf+iLizE2LJzdhS3sX26kWIH19B4/dXIhz9A1LGVYiZL7d72vOGOOCATMJ6idtyoG+aB80DxWj7V6B7uQr9qzXoB9kwvmHHNNSJ+b16LMMbsH7cQMJnDXQb14BhpIPHUlztDrQjDeS6zQh7rkLcc3X72qcCvBghVUVg83Xv2LuZmm97IYy4DHnulYjH/oB4/Kl2T31eEEcdk+m2WcK6Qea+Cuj1ZTXh9xShe6kS3UtV6F+pQT/QhmGwHeMQJ+a36zG/34B1RAMJoxqwftqA6WMn2Wd3QXLGSXn3mhB3X+1X2tWIp9UfEPdc42sjbOyE7FpySn+1y77A+f61sO4q5JxbT/m+dcU5Q1xSKpOwUaLbJonex+CurW40Dxai7VdG3AsVxA2oQvdyDfpXbRheq8PwhhPT0AbM7zVgGe4i4RMX2jfqeX/H+acz6qSkigWIqX9ATPsj4q42lHYNYtq1CJs7IRW/1prHiX3BVk71Px7GvaIzSM4T9acrnBPEApdC/AaRxE3SibWw98RaQv6Wh/YFFWI5cS9WEjegGt0rNvQD7Rhed2Ic0oDpbReWYS7Mw1wY3mmg8EIwVGS820OQVHipbekaxF3X+mALqdeA1HA6JgF17oIDyO7agLrWO+cE8cGdkt8KN0skble4N0smfmgpkQ8VEPt8CbH9StGq1vhiFXEv1aJ71Y5hkBPjG/WY3nJhfreRmAEuBqRcCIIgZg5D3HENYuo1iNuv8ZfV/QCp8P7br51/Qq5Z05rFOe+fNcTpBfIJK1TXw1uOwN2pbmIfyyPmmUJinytuAlmGtr9qjTXoXq5DP9CJYXADxjddmIc2Ev1cA2srlHMeePOBircKYZMK7FrEbW1ox3WIqdch7vwTYs7w5sMvyPasIJa7wbpeJGGj35XVNfHOEvjbAjuh/5NFzN8LiPl7ITF/LyLmuRJi+pWjfUG1Rhu6VxzoBzVgfN1F3Esueo5yU38B8kIh/TnEbf+NuPUM2qLWX4e4/XrE1OsR0uIvCLiWnZwVxBf2SE0QJV9UViHeWw69J1YT9NfjaJ7JQ/NMPppnCtA8q4IsJfb5CrQvqNZoR/+qE8NrLiIfczFy0/nnhbJtN8KG6/yQNl+HeCZtvQFp+40Im65HachtOf8LUu4wxKMOBfNa8RSIfcvglu8rCPrbMaKfyvHr6Tyin1ZBFhPzXBmx/avQvliH7mUnhoEuop9ykZJ//q4sbDYjbv4T4qY/IW48nVSwNyBu+zPi5huR8ideEGitO+kwxCd3SVjWiQHroWqJ95dCr7GldPnrYSKfyGxSFlFP5hL9lAqy5IQ1xg2wo32hHt1LLgrO8z6DVDgLcf31iBuvR9xwGq1Xod6AuLUz4pbOCHvbT5pbw+nofocg7rf5rbAlxKQtEgmbJO4vh17jSrjptoNEPH6U8MdUHSPicRVoLtFPq2tkGbH9qol7sY6YZ52Y33ThOE9v9q4JRdxwA+K661upue4GxE03IW65Ce/ariB7OsrkrNt1COKzaZLPlVtDVPPEB6rglvGl/LnXPsIfPUTYIxmEPZxB2CNHCH/suB/kM6pbV6LtbyP6SQe3f9aIdB7eLBwcirj2RsR1N/q3avmEbkBccwPihpsQN3dFWNsZuWbXWYM5mwPahVjlAdMa8cR62Jxkq5aoXq08UAN/+6WSG5LTCHv4AKEP7ifkwQOEPHiQ0IdVkKpFFqB5Rg0y1UQ+XMcTP567Lyv1eQgrbkBc+2fE1TeeqlXqd50RNwUhbuiKeHzc2fA4p7btQpyWL5+A2NoSu2+V+J8cuC/NRdAdaQT33U3w/bsJuk/d7iPkwXRCfRaZTdRTRcQ8W0HEwzU88M2533AQtt6DtLoz4qo/n6qVNyKu6oy4PghpQzDeLbefE5SzPahdiM+lSWeE2GO7RNJ2hadqwfzGIa5N2ETQfTvp2ieVrvfuIui+PQQ/mE7Yo8ea3LqE8EcqSXzLjvscckS5bAPichXgTYgrOp9ea1WAIXhXRaF4686Wxzm1bxOiUwTzGrFNiMlbRB6ywb0rq7gqdhVd7t5Kl3u2ctM92+h6b6oPZMjDh/xu/VQBEY+XEv10NeqbDmf1UUS8y2IRV3ZBWH7TqVrWGWFVEOL6cLyrg5ErOvZu4VmN4QyN24S4t1bBuPrMELtvk7h5p0SPnQr9PJA84hCXRKTQ5Z6N/PnOTXS+awtd+qQSfP9eQh86TPhjWUQ9VUjXO0tYnHP6V0LOME6E/R8gLOvi19IuCC2VchPCMjWIhCOsCUM4+NGZuvmn1LcJcXKujHGV6AOpWqSlVbKtQuyVKtFzm8idefCSUyb8wY1cFD6fzneu4893bPCB7HrvToIe2O9bHyMezyG0bwG3D2/7zkjL2SqN5XgXNYFK6YrQUku6IKR0QVgVhrguAu/GO1oe+i8ptwnxg4MSxpV+iKbVTRDXiSRs8Efm5K0SPXdI3Jom0XO7RN9yeLHSS9Qj6/ld19n8qfdKOt+1ns53b6HLvbsIfuAA4Y8c9SXiYfcXMWZx+7eiVArejQ8ipgQhLOmKsDiohboiLOqKsDwUcW0k3mUxKELbD7vUVTJHgUwFcmSoOo9Uq/kXahPioD0ShpWCzxp9ENeIWJuvWjZKqGlOjyaXvm23xM2pEg9Wwav1Conv7eTSiFlcFDWXP/Vew033bCWob5ovYoergebxPCIfLWHxlrbTHalkHd6FKrhghEVBLRSMsKArwpIQpDVRCMsjkEo3Ns8rYKuCm6fAYBlukaCbqJAoKCR6FBIbZR5rkBnfKLNfODeibUJ8bLuIYYWAcaWAaZWAebWAZa1AvO9Ojv8mhJrm+Kxxl8Rf9kr0TpPoUwADRHhgbTGGV7dwXffFXB67kCv1K/jv5M10/tsegu85TPA9WQT3KWTkRAcu9RWx1h9FxDNfg7goBGGhCq1Janl+EMLCEKSVkYgroxH2jWh9NGoCMEGB2yToLkGyBEkidGsCmNCoYG2QsdhljDUS+nKR58tFdrfz9lnrE7UJ8S/rRfTLhRMgfRDXCMSvE0hYL/qS7eRma0z1A/zrPonb90vcngHPuGGAGx7ZY6f3pGySPz2EaUg6mn4HiHomA+0LWcQPLebWL2u4e1o9+ysC8x5h59sIC0L8mh+CcELBCPOCEZdFIq3W4Nn8ZOt5cUiBxyXo0QSwuwjJgkKSoNDNZ4EKCQ0yVoeMqVbCUCGiLxLQZnuIzWjkq6KOP/hpE2LSKi/6ZV4MzSCbrVEFuV4kcYNI0mYR1Rp77ZC4ZZfEbXsk/rZf4q5DMndlyNyTCU/UwYsKvKLAABc8VyHzTIlIvwqJgQ3wJjAEKGiJwp6H9xfV4sIQ5oW2UAjC3GDERRHIq2LxpBig1Tq4WYWnQE91K0J3QZVCslchqQXAeIeMxSZhqpIwlAjo8jzEHnWj2ecieruTrzLbf61OHXKbEBOWe9Ev9cuwzItxhRfTyma3Fn0gu20UUXPFHltFH0g1yPxlj8T/HPCD7HNU5r5MmQdyZB7Kl3msFJ6phecd8LwTnrPD87UKC1stjZ6ltyHOC0f4NQxhbpPU8i+qRYYjrYjFuyQGpTy1JXrmiXCzBD1F6ClAD0Ghu1ch2aOQ5FZIcikk1sskOGSsNglzlYSxVESfLxCX6SE2vRHNznqiNtgJT6llcX6rgQWczb/TJsTk5R50SzzoU7z4IC73gzSv8mJZI2Bdq0Zq1a1Fum8RfanOLTtFeu+WUN3aBzJD5gTIbJmH82QeLZB5oljmyRKFp8sU+pcptMwa5UPjEX5RAYYj/KKCa4I4J9QHVFoWi7BMi3T454AprfBCT9kPr6dXQVUPj0KyWyG50Q+wW71Cgl0m3iZjrZYwl4kYCwV02V60GW5idjcQvcVJ5Ko6wudXEzOjst2bJW1CvH21l7hFLUAu9WJc7sW0wosK0rpGJN6X8ogkNYPcLqKCVKO1H6Tsc+17jsj0PS5zf5bMgzkyj+Q3wSyU2dzyx3ZV4J4VgTg3AmFO+EnNDkOYHYa4OAZpRRzCtkEBALe5VXh+aD3dCj0a/ereqJDcoJBcr5DkkElUAdbKxFdJWMpETIUChmwvuqNutPtdaLbXE73OTsSSWsJmVxHyYxmzM9q+1m8T4hMbvcQtdKNb5Ea32INetcqlHozL/CAtqwSsvkDjXx99Fqm6dUuQe/0WeedBmbsPy9x7LBDmsJJWwWTN0whzIhHmRCDMbqGZYYjzo5FW6PAuuy0A4GEP9PIodHcr9Gzwq0eDQo96he5OhWSnQpJdpptNJrFGJr5SwloqYi4UMOZ40R/1EHegkdhdDWg2OolcUUf4vBrCplYQ/H0pT8+vDjhf6502IQ7c7kU73412gRudCrMZZIoK0uOzSBVkfFPEbg406hrZDLJ3muhbI9WIfUe6f51UYaou/uAxmaIWfqwcm41nZiTC7EiEWRFNikSYobp1FNJyPZ6FRqgvPjEPhwx31fndtYdDoYdTwbd1KHS3y3Svk0myyXSrkelWJZNQLmEtEbEUCJhyvBiOetCnu4lLcxGzpZ7o1Q4iF9kIn1VN6E/lBI8rxvh10Ynzna7QJsT307xo57rQzm1EO7+RuAWN6Be50S92YzgNyIR1At2aI3bzGpkq0lvNIff43dsP0+/iE6paDElw4Z4WjTg7CkEF2azpEb6ylKLDu8QARetbHKReIckk1Sv0qPWru02hu02me61Mco1McrVMUqVMYoVEYqlEfLGIJV/AnCVgOurFkO5Gt7sR7dYGYtY6iU6pI3JuDeFTKgn9vozgz4sIG5EXcM7WO21CHJ8hEDu7gdg5KkgXcfMaiZvf6LPKAJDLvTRbpArSZ5GbmqL2NpGbd4jcqgacpsitrpXPHQl0Y3H9KwgzoxBmtND0SIRpkYgL4xBSDMj7vgoY/+gKhaRame6VJ5VcJZNc2aQKmaQyiW4lEolFEgkFItZcAUumgOmwF2O6G/3uRuK2u4hd70Sz3E7U/FoiZlQT9mM5IeNKCBpVSMxH+QHnbb3TJsSdZRKxM+qJnVXvg6n9xUVcE0ydzyobMaoWudSDyQfS63PthLUCib5kvDmP9Efum1NFXy75110S2S0feRSuwzMtGmFmNML0qJOaGok4T4u4zIS49a2AsS+sgaRymaQSmeRmlcokl/rrkoolVHUrlEjMF4nPFYnPErEcEzBneDHu92BIc6Pb5iJuQwMxK5xEL6ojcnYtEZMqCf2ujJAxxQSNKCDmg/OwxEqXQsxUJzHTnMTMqCdmpmqVDcSpMOe50M1X3VsF6ca01OsHubJpjVwrkLDuZMBpziVv3iYytuXfYqtuPN2EOEODMD0aQYWpaoq6NsYiLTPhXXZPAMAjLuieK9GtQCYpTyYpXyKp4KS65Ut0y5NIzJNIyBFJyBKJPy5gPezFctCLaa8Hwy43+iaA2lVOYhbbiZ5rI3JqNeHjKwj9qpTgUUUEvZ+P5p2cgPO33mnTEtXG9yyoJ2ayIwCm6uLaXxqI+7XRB1INOoYUt98il3kxrxSwrg4MOImb/Fb55O7Ax3zCqn4I0zR+cFObAE5WXVqDlGLCszAZGk8unupTwtuOiHTLEkk6LtEtU6JbVpOy/dvETBGfjonEHxWIPyxgPejFst+LeY8HY6ob/ZZG9OsbiFtVT+wSB5pf64iaXkvET5WEf1tO6JgSQkYUEvROHsGDs1pzC9hvF+KHWxqJ/qkOzUT7SZhNLq5VrXKuC908dZ1sxLDE7XfvZR7MKwTfOumDqSbl60WSN4iof9fS/FHyVuGZogKMQZgSjTBVg6ACnKJBWmzCu8AElenNzX3bl47KJBwWSTwk0i1DpNthkW5HRBJb6rBIQoZAwiGB+HQv1v1eLHs8mHd5MO1wY9jciH6dC93KerQpTmLn1RE900bU5GoifqgkbGwZoaOKCR6Wz00DM0ka1dJ1Aobj22kX4sZ8gcgfbESPt6H5yY5mkoOYKQ5ipjuJnVmPdnYzSJcf5OKTINWk3JdLrhZIWCPwa2mLAahJ9RQz4rRYHzQVnDBZgzApGnG+Ee9iC0pW4F++f5Urk7BXIGGv6Nsm7hdIPHBS8QcEElTtF4jfJ2DdK2Dd7cWyy4N5hwfTVjfGjY0Y1rrQragnbomT2Pl2YmbbiJ5SQ9SEKsLHlRP2WSmhI4oIeiefm/ofZcDs88gT1Sl7JYXY72qJUvUPG9E/+q1So7q4ulaqIOc0NEVvP8gTkVsNOCrIlV7e2B8YjYVFDyFM1SJMVSHGIEyOQZioQfzVgLDUirz36xbEYWG5QsIOLwmpXhJ2CiTsEohXlSaQoGq3l/g0L1ZVu7xYd3qxpHqxbPdi3uLBtKkR4/pGDKtd6JfXo1viJG6eg9jZdcRMrSX6p2oiv6sk4osywj4uJuT9AoKH5HLTs0f4YUfbN3rbtUR1Jq8tdRDxVTWR39YQ9X0t0RPq/FbZDHKG3yJ90VsNOGrk9uWSbgxLPfTZGPhUSjk0Be9kFaAWYYoKMRZhYgziHD3isnik1MBnJBlOSNzoIX6zl/gtXuK3eojf5iV++6mybPNi3ebButWDZbMby8ZGTOsbMa1xYVjZgGFpPbpF9T6A2tl1xE61ofm5hqgfqogcV0746FJCPywi5J18ggZm0bXfMXLsgQYQ8Ou2dxenuXF2jUj4mEoixlYR+XWNzypburdGjeDqOukLOE35ZBNI8xI3+S0vPWuO4p4UhzhNhzBFhahFmBiLOFOPuDwBYd0Lzaf1bR0i3LLeg2WNG+taD9b1HqwbPFhVqJv8sm7y0CzLRg+qzOvdmNa6Ma1uxLjShXFZA/ol9egXONHNdRA3y07sNBsxE2vQ/KOaqK8riRhTRvjIYkKHFRAyJI8uzxzm1jEnr44CBtZip0OWqLZ/ZHot4Z9VEvGl+ouppl/btE7W+dfJpjTIB7IplzQscDG31ZrsnXkrwlQVYJxfE2MRpumQlibgXf0UKCd/dbX0yBYv1uWNWFe6saxq0hp3E1Q31nV+Wda68WmNG/PqRsyrGjGtUOG5MKY0YFhUj35+/QmA2ml1xE6sRTO+Gs23VUR9UU7EqFLChxcR+nY+Ia/nctOjB5me3v49xQ5DTC8RCP24nLDRFYR/UUXEuGqivq0lWl0n1ejdwrV9ueRcF19ltEpn1g5GmKpvgqhDmKi6dBPAZX1AahG6gRd3CFgWNWBZ4sKa4sK6tBHrskYfVMuKRlrLvLwR8zKXT6alDRiXNGBcVI9xQT2GX53o5zjQzbSjnVKH9udaYv/RBHBsBZGflhIxopiwdwsIezOPrn8/QuTgbDwnf9MWthdY7DBE9bB7f6oOANlskVHjbUT/bPdH7Wn+qN1/Y8tLEpCP/op3sgpQjzBFhzApDmGyDiklAU/KreAMvMgfvl/E+ms9lgUNWBa5mtSAdbEfqgrWktLoA6yWzc1a7MK0qAHjwgYM8+sx/urEMMeJfpYD3XQ7cVNsaH86CTB6bAVRo8uJ/KiEiGGFhA3JI2RQNjc9nM6sjMA5BKI7uXdWEHOqBEKGlxD6cVmARaquHTW+zgdSM8XB/UtbRbPK/Xgm6RGnGZoAqhB1SIsTUO9gYwtMZj/aJ2Kd5cTySz2WXxuwzGtWPZb5DVjm++GaF9Tj0/x6zPPrMamap4Krx/iLE8NsJ4aZTvTT7eim1hE3yYb2x1q0P1QT800Vmi8riR5dRtTIEiLfLyR8aD6hb+TQ5fFDdP8k8Ec9iezU0llBVA8ft85OyPDSJousJFxdI9Vgo+aSP9bRY4Yde0uvlAW8029GnGZEnKpHVGFO1CEtSkBYnAzVGQGjGndYwjrNgWWmE8vseixzTsqsllWwqub6ZZ5bj/kXp0+mOU5Msx0YZzkwzrBjaIKnm2wj7mcbceNr0H5fTezXVcR8WYFmdBnRI0uIGl5E+Nv5hL6ZR3D/43R5+CC7Kzvgx00jP2uI6nG3flVO6IelhH1S7g82Y9X0pxbDhGqy7QFMEJb2Q5xq8GuSDlG1wIXxCCm9oWxnQGPVAuMn1WGdascy3enXDCcWVTOdmFtqlgPzTAemFlLBGafbMUy1Y5hch36iDd1Ptegm1BL3Qw3ab6vRjqsi9osKYpoARn5QRPg7BYS/kUfoK1l0eTCdkRtbeVLAKE/dOSeIBTUCwcOKCf2ojLBPKwj/vArNuAr2VgSeQNwwDHGKwefGKrwTFrgkCaoDL+c+3COQMKEW68Q6LFOaZccyxYFlql/mqQ78smOe6pdpqh1VRlWT6zBMqsPwsw3Dj7XoJ9Si+6EW3Xc1xH1ThXZsJdoxFcSMKkOjWuAHRUQ0AQwblEPXBw5w+7iSwEl0YK99iIoEcmCUVftdc6SRkA/862P06FK2FQU+fJf2TkCYYvS7sc+F9UgLExDUNbD85JursgJvbfMQ/0MNlgk2LD/X+TWxDrNPNt/WcmK/ub4O08Qm/VyH6Wcbxh9tGCbYMIyvxdAET/dNNXHjqoj7spLYzyrQfFKG5qMSot8vIvJt1QJzCX8th6BH04kZlEl1y6WoAwDVJu1CVFzVKM6WF70nex633kHkiEI25weuH/KRXxEmG5Gmmfxr4CQD0qJuSCv+As6TiaP6712eWFxP/FdVWL6vwTK+Fss/arFM8Mv8Yy3mH22YJ9S2kg3ThGbVYlKh/cMPzvB9Dfpvq9F9XY3uKz887ZjyE9YX/WExUe8VEjk0n/DXVYDZBD2WTvDTh8ioCzSEkzNtu9Q+xJpM5PL9Z+wl3xZ4YjlrKd5JqgsbESfqEScbEBclIa+6G5wnb24ecsIjcxzEf1mJ5ZtqLN81q8YP9PsazD80SS1/X4Oppb6rwfhdNQZV31b7wOm/rkb/VRW6sZXEfVGB9rNytJ+WEftJKZoRxUR/UEjUuwVEvJVHxOAcwgdmEfzIAR/AXTJDpZAAAAaOSURBVFWBhnDGCZ/mi/YhVmcgF245zaGnVsnHlzQBNPkBTjUiqhF4y1MgnXwuuqIUkr8sxzq6DPNXVX59XYW5SZavqzG3kmlcNaavVVVhHFeFoVlfVWEYW4n+y0r0n5ejG1NO3OhytKNKiR1ZQsyIYmI+KCL6vQKihuYR+WYOEYOyCH/lOEEP7CPk7xnsqzl3gCqF9iE2FCMdnHIqsVY1cvoUH0BJBfezDmmmGWlxd9j9UkDLr/crJI4sxPpREeYxZZjHlGP+vALzF5WYv6zEpGqsf2v2baswja3C+GWlX19UYlD1eYVfY8rRfVaObnQZcaNK0X5SinZkCbEfFvngad4rIPrtfKKG5PquQFSAYS8cIejePcS/m8MRR6AnBQy2gzvtQlT7EZY9jlySdsYuxc0jEKcYkScbkCbpkefGoyxOgJyT/3+wxgUvzq3D8nYmxmG5GD8qwjSyCNPHxZhGlWL6tAzz6HJMYypOkfGzcoyj/TJ8Wo5hVDmGT8rQf1KG7pNS4kaWov1IBVdMzPAiYt4vJObdAjRv5xM9JJeo17OJHJhJxKvHCX3yIF377ubZGZXUBd5cOuP82vuiYxDXPYcws/cpfclF2xDn34s0WY80yYA81Yi0MBF59R1QcXIJWH9UoteHx9APOohuyDF072Shfy8H/bA8DB/kY/ywEOOIIowjSzB+XIrpk1KMPpVhHFWK4eNSDCNL0av6qBSdqhElxI0oQTu8GO0HRcQOawL3Tj6at/KIfiOH6MHZRKnwXjlOWP/DBPXdTdCj+/gitWMvl54y4TNUdAii4shFnGNGnP8o0p7xSGnfIi56DPFnFZ4ReaoJea4VaXEi8t5PQfTf+The7OXpscXoX9iO5oXdxLy8j5iB6WgHZxD35lHihmQSNzQb3Tu56N7LQz8sH/37+eg/KMAwvAh9k3TDi4n7oMiv94vQDitE+14hse8WEPtOPjFD89AMySX69RyiBmcRNSiTyFeOE/7SMcJeOEzwQ3vp2jeNu8YVsvM8AsgZGLa/JjYfKKW9hzzbijzZiKxa3RQT8nQz8i9WpEWJiBueQanY09zct12eJRPzyk7C+64i/P51RD+7g+j+u9EM2Ivm5QPEDDxE7GuHiR18lNg3jqMdkkXsW9loVQ3NQTs0l7i3cn1btRw7xK+YN3PQvJ6NZnAW0T5oWUS9epzIV44RMeAo4S8eJuz5DD+8u3YS0e8Q/9jX/i2tgMGfxU6HLNHXnyIh7Xobab4VSbW6eVakJTcj7RiMXLD2jKdsFGHCTge3DD9E+APrCO+zhojHthL1/C6i+u8l+sX9aF46gOblg2hezUDz6hE0A48SPegYmkHH0QzKJMa3PY5mYCbRrx4j6tVjRL58jMiXjhAx4AgRLx4mvP9hwvplEPp0OkF9d9H17p1Ev3yYTzc7Kf3n8fPNu+MQmzApjjzk8m3IlWng6fgf26hXJsuyPdz3bS5hT2whtM9aQu9eS9hDW4h4KpWIv+8hst8+IvvtJ7J/OpEvHmzSISJfOETECxlEqNt+foX3O0TY84cIfSadkMf2EdR3J13u2E7X+3dhHZbFTwcaqezYnawzGkBHvzhriB3tuK12R2wy3+xw8OiEfKIH7CH0iVRC+mwk+M4NhNyziZD7txH6SCphj6cR+uRuQp/cQ+jjewh5dDfBD+0iqM8Out61ja53bPP99VbQE3tJGJ7N26vqWF0o4j71KrWt4Zz3d/8WiC1HXemGveUCM9JdvLmsljt+KCbytQxCn91DyOO7CH44leAHUgl+KJXgJ3YT8vwB4t7J5IFJ5Xywzs6kwx6yLkCu13JMZ1v+t0NUB5xvb/F+HfhuAhx1wO5qmW0VMlsrZLZXKeypVTjuhFbNfXPeVODF6Tn/xPlsAart/yMgpmQ2oPn8OLPSarA1BAJta1Iur8zGrEZ6/VTBGxvq230tuK2+zue7/wiI6gS+2FpD1MdHCR92kL5jj/Dxr/lMWFnC3C0VLNpexZId1SzYVs3ktZWMTang+UklaEbmE/tlKY8tsKEGrn/X5z8GogpgT6GL56fnEzZkP6GD9hHyyh5CXtpDyIC9hL60j9BX0gl/LYOIIceIGpbN3eNLWdzO+9T/CrD/URCbJ6y69NpDdXy3spQPfyng9cl5vD4ln/dmF/HVsgrmp9kpsV2gC9/mk57H9j8S4nnM599y6G8QLwD23yD+BvECELgAXfxmib9BvAAELkAXv1niBYD4v1T1/j3S7ekYAAAAAElFTkSuQmCC;" vertex="1" parent="1">
          <mxGeometry x="363.33" y="1220.6399999999999" width="57.5" height="66.73" as="geometry" />
        </mxCell>
        <mxCell id="UEzPUAAOIrF-is8g5C7q-128" style="edgeStyle=orthogonalEdgeStyle;rounded=0;orthogonalLoop=1;jettySize=auto;html=1;startArrow=open;startFill=0;endArrow=open;endFill=0;strokeWidth=2;strokeColor=#808080;" parent="1" source="UEzPUAAOIrF-is8g5C7q-109" target="UEzPUAAOIrF-is8g5C7q-114" edge="1">
          <mxGeometry relative="1" as="geometry">
            <Array as="points">
              <mxPoint x="310.5" y="461.5" />
              <mxPoint x="310.5" y="376.5" />
            </Array>
          </mxGeometry>
        </mxCell>
        <mxCell id="UEzPUAAOIrF-is8g5C7q-124" style="edgeStyle=orthogonalEdgeStyle;rounded=0;orthogonalLoop=1;jettySize=auto;html=1;startArrow=open;startFill=0;endArrow=open;endFill=0;strokeWidth=2;strokeColor=#808080;" parent="1" source="UEzPUAAOIrF-is8g5C7q-110" target="UEzPUAAOIrF-is8g5C7q-111" edge="1">
          <mxGeometry relative="1" as="geometry">
            <Array as="points">
              <mxPoint x="300.5" y="241.5" />
              <mxPoint x="300.5" y="101.5" />
            </Array>
          </mxGeometry>
        </mxCell>
        <mxCell id="UEzPUAAOIrF-is8g5C7q-127" style="edgeStyle=orthogonalEdgeStyle;rounded=0;orthogonalLoop=1;jettySize=auto;html=1;startArrow=open;startFill=0;endArrow=open;endFill=0;strokeWidth=2;strokeColor=#808080;" parent="1" source="UEzPUAAOIrF-is8g5C7q-110" target="UEzPUAAOIrF-is8g5C7q-114" edge="1">
          <mxGeometry relative="1" as="geometry">
            <Array as="points">
              <mxPoint x="311.5" y="281.5" />
              <mxPoint x="311.5" y="361.5" />
            </Array>
          </mxGeometry>
        </mxCell>
        <mxCell id="UEzPUAAOIrF-is8g5C7q-125" style="edgeStyle=orthogonalEdgeStyle;rounded=0;orthogonalLoop=1;jettySize=auto;html=1;startArrow=open;startFill=0;endArrow=open;endFill=0;strokeWidth=2;strokeColor=#808080;" parent="1" source="UEzPUAAOIrF-is8g5C7q-111" target="UEzPUAAOIrF-is8g5C7q-112" edge="1">
          <mxGeometry relative="1" as="geometry">
            <Array as="points">
              <mxPoint x="530.5" y="101.5" />
              <mxPoint x="530.5" y="101.5" />
            </Array>
          </mxGeometry>
        </mxCell>
        <mxCell id="UEzPUAAOIrF-is8g5C7q-126" style="edgeStyle=orthogonalEdgeStyle;rounded=0;orthogonalLoop=1;jettySize=auto;html=1;startArrow=open;startFill=0;endArrow=open;endFill=0;strokeWidth=2;strokeColor=#808080;" parent="1" source="UEzPUAAOIrF-is8g5C7q-113" target="UEzPUAAOIrF-is8g5C7q-114" edge="1">
          <mxGeometry relative="1" as="geometry" />
        </mxCell>
        <mxCell id="UEzPUAAOIrF-is8g5C7q-129" style="edgeStyle=orthogonalEdgeStyle;rounded=0;orthogonalLoop=1;jettySize=auto;html=1;startArrow=open;startFill=0;endArrow=open;endFill=0;strokeWidth=2;strokeColor=#808080;" parent="1" source="UEzPUAAOIrF-is8g5C7q-114" target="UEzPUAAOIrF-is8g5C7q-115" edge="1">
          <mxGeometry relative="1" as="geometry">
            <Array as="points">
              <mxPoint x="510.5" y="391.5" />
              <mxPoint x="510.5" y="391.5" />
            </Array>
          </mxGeometry>
        </mxCell>
        <mxCell id="UEzPUAAOIrF-is8g5C7q-130" style="edgeStyle=orthogonalEdgeStyle;rounded=0;orthogonalLoop=1;jettySize=auto;html=1;startArrow=open;startFill=0;endArrow=open;endFill=0;strokeWidth=2;strokeColor=#808080;" parent="1" source="UEzPUAAOIrF-is8g5C7q-115" target="UEzPUAAOIrF-is8g5C7q-116" edge="1">
          <mxGeometry relative="1" as="geometry">
            <Array as="points">
              <mxPoint x="700" y="352" />
              <mxPoint x="700" y="53" />
            </Array>
          </mxGeometry>
        </mxCell>
        <mxCell id="UEzPUAAOIrF-is8g5C7q-131" style="edgeStyle=orthogonalEdgeStyle;rounded=0;orthogonalLoop=1;jettySize=auto;html=1;startArrow=open;startFill=0;endArrow=open;endFill=0;strokeWidth=2;strokeColor=#808080;" parent="1" source="UEzPUAAOIrF-is8g5C7q-115" target="UEzPUAAOIrF-is8g5C7q-117" edge="1">
          <mxGeometry relative="1" as="geometry">
            <Array as="points">
              <mxPoint x="720.5" y="361.5" />
              <mxPoint x="720.5" y="162.5" />
            </Array>
          </mxGeometry>
        </mxCell>
        <mxCell id="UEzPUAAOIrF-is8g5C7q-132" style="edgeStyle=orthogonalEdgeStyle;rounded=0;orthogonalLoop=1;jettySize=auto;html=1;startArrow=open;startFill=0;endArrow=open;endFill=0;strokeWidth=2;strokeColor=#808080;" parent="1" source="UEzPUAAOIrF-is8g5C7q-115" target="UEzPUAAOIrF-is8g5C7q-119" edge="1">
          <mxGeometry relative="1" as="geometry">
            <Array as="points">
              <mxPoint x="760" y="372" />
              <mxPoint x="760" y="280" />
            </Array>
          </mxGeometry>
        </mxCell>
        <mxCell id="UEzPUAAOIrF-is8g5C7q-133" style="edgeStyle=orthogonalEdgeStyle;rounded=0;orthogonalLoop=1;jettySize=auto;html=1;startArrow=open;startFill=0;endArrow=open;endFill=0;strokeWidth=2;strokeColor=#808080;" parent="1" source="UEzPUAAOIrF-is8g5C7q-115" target="UEzPUAAOIrF-is8g5C7q-120" edge="1">
          <mxGeometry relative="1" as="geometry">
            <Array as="points">
              <mxPoint x="760.5" y="381.5" />
              <mxPoint x="760.5" y="415.5" />
            </Array>
          </mxGeometry>
        </mxCell>
        <mxCell id="UEzPUAAOIrF-is8g5C7q-134" style="edgeStyle=orthogonalEdgeStyle;rounded=0;orthogonalLoop=1;jettySize=auto;html=1;startArrow=open;startFill=0;endArrow=open;endFill=0;strokeWidth=2;strokeColor=#808080;" parent="1" source="UEzPUAAOIrF-is8g5C7q-115" target="UEzPUAAOIrF-is8g5C7q-121" edge="1">
          <mxGeometry relative="1" as="geometry">
            <Array as="points">
              <mxPoint x="740.5" y="391.5" />
              <mxPoint x="740.5" y="530.5" />
            </Array>
          </mxGeometry>
        </mxCell>
        <mxCell id="UEzPUAAOIrF-is8g5C7q-135" style="edgeStyle=orthogonalEdgeStyle;rounded=0;orthogonalLoop=1;jettySize=auto;html=1;startArrow=open;startFill=0;endArrow=open;endFill=0;strokeWidth=2;strokeColor=#808080;" parent="1" source="UEzPUAAOIrF-is8g5C7q-115" target="UEzPUAAOIrF-is8g5C7q-122" edge="1">
          <mxGeometry relative="1" as="geometry">
            <Array as="points">
              <mxPoint x="720.5" y="401.5" />
              <mxPoint x="720.5" y="653.5" />
            </Array>
          </mxGeometry>
        </mxCell>
        <mxCell id="UEzPUAAOIrF-is8g5C7q-136" style="edgeStyle=orthogonalEdgeStyle;rounded=0;orthogonalLoop=1;jettySize=auto;html=1;startArrow=open;startFill=0;endArrow=open;endFill=0;strokeWidth=2;strokeColor=#808080;" parent="1" source="UEzPUAAOIrF-is8g5C7q-115" target="UEzPUAAOIrF-is8g5C7q-123" edge="1">
          <mxGeometry relative="1" as="geometry">
            <Array as="points">
              <mxPoint x="700" y="412" />
              <mxPoint x="700" y="730" />
            </Array>
          </mxGeometry>
        </mxCell>
        <mxCell id="UEzPUAAOIrF-is8g5C7q-137" value="" style="edgeStyle=orthogonalEdgeStyle;rounded=0;orthogonalLoop=1;jettySize=auto;html=1;startArrow=none;startFill=0;endArrow=open;endFill=0;strokeWidth=2;strokeColor=#808080;" parent="1" source="UEzPUAAOIrF-is8g5C7q-117" target="UEzPUAAOIrF-is8g5C7q-118" edge="1">
          <mxGeometry relative="1" as="geometry" />
        </mxCell>
        <mxCell id="UEzPUAAOIrF-is8g5C7q-139" style="edgeStyle=orthogonalEdgeStyle;rounded=0;orthogonalLoop=1;jettySize=auto;html=1;startArrow=open;startFill=0;endArrow=open;endFill=0;strokeWidth=2;strokeColor=#808080;" parent="1" source="UEzPUAAOIrF-is8g5C7q-110" target="UEzPUAAOIrF-is8g5C7q-111" edge="1">
          <mxGeometry relative="1" as="geometry">
            <mxPoint x="270.2846463484759" y="261.67647058823536" as="sourcePoint" />
            <mxPoint x="422.5" y="124.02941176470586" as="targetPoint" />
            <Array as="points">
              <mxPoint x="311.5" y="261.5" />
              <mxPoint x="311.5" y="121.5" />
            </Array>
          </mxGeometry>
        </mxCell>
        <mxCell id="UEzPUAAOIrF-is8g5C7q-141" style="edgeStyle=orthogonalEdgeStyle;rounded=0;orthogonalLoop=1;jettySize=auto;html=1;startArrow=open;startFill=0;endArrow=open;endFill=0;strokeWidth=2;strokeColor=#808080;" parent="1" source="UEzPUAAOIrF-is8g5C7q-113" target="UEzPUAAOIrF-is8g5C7q-114" edge="1">
          <mxGeometry relative="1" as="geometry">
            <mxPoint x="500.5" y="260.22413793103453" as="sourcePoint" />
            <mxPoint x="418.4655172413793" y="347.5" as="targetPoint" />
            <Array as="points">
              <mxPoint x="529.5" y="351.5" />
            </Array>
          </mxGeometry>
        </mxCell>
        <mxCell id="UEzPUAAOIrF-is8g5C7q-142" style="edgeStyle=orthogonalEdgeStyle;rounded=0;orthogonalLoop=1;jettySize=auto;html=1;startArrow=open;startFill=0;endArrow=open;endFill=0;strokeWidth=2;strokeColor=#808080;" parent="1" source="UEzPUAAOIrF-is8g5C7q-114" target="UEzPUAAOIrF-is8g5C7q-115" edge="1">
          <mxGeometry relative="1" as="geometry">
            <mxPoint x="457.5" y="386.5" as="sourcePoint" />
            <mxPoint x="590.5" y="386.5" as="targetPoint" />
            <Array as="points">
              <mxPoint x="510.5" y="371.5" />
              <mxPoint x="510.5" y="371.5" />
            </Array>
          </mxGeometry>
        </mxCell>
        <mxCell id="UEzPUAAOIrF-is8g5C7q-143" style="edgeStyle=orthogonalEdgeStyle;rounded=0;orthogonalLoop=1;jettySize=auto;html=1;startArrow=open;startFill=0;endArrow=open;endFill=0;strokeWidth=2;strokeColor=#808080;" parent="1" source="UEzPUAAOIrF-is8g5C7q-111" target="UEzPUAAOIrF-is8g5C7q-112" edge="1">
          <mxGeometry relative="1" as="geometry">
            <mxPoint x="500.5" y="111.5" as="sourcePoint" />
            <mxPoint x="578.5" y="111.5" as="targetPoint" />
            <Array as="points">
              <mxPoint x="530.5" y="121.5" />
              <mxPoint x="530.5" y="121.5" />
            </Array>
          </mxGeometry>
        </mxCell>
        <mxCell id="UEzPUAAOIrF-is8g5C7q-109" value="data lake CLI" style="outlineConnect=0;gradientColor=none;fontColor=#545B64;strokeColor=none;fillColor=#879196;dashed=0;verticalLabelPosition=bottom;verticalAlign=top;align=center;html=1;fontSize=12;fontStyle=0;aspect=fixed;shape=mxgraph.aws4.illustration_desktop;pointerEvents=1;labelBackgroundColor=#ffffff;" parent="1" vertex="1">
          <mxGeometry x="160.5" y="415.5" width="100" height="91" as="geometry" />
        </mxCell>
        <mxCell id="UEzPUAAOIrF-is8g5C7q-110" value="data lake console" style="outlineConnect=0;gradientColor=none;fontColor=#545B64;strokeColor=none;fillColor=#879196;dashed=0;verticalLabelPosition=bottom;verticalAlign=top;align=center;html=1;fontSize=12;fontStyle=0;aspect=fixed;shape=mxgraph.aws4.illustration_notification;pointerEvents=1;labelBackgroundColor=#ffffff;" parent="1" vertex="1">
          <mxGeometry x="160.5" y="221.5" width="100" height="81" as="geometry" />
        </mxCell>
        <mxCell id="UEzPUAAOIrF-is8g5C7q-111" value="Amazon &lt;br&gt;Cognito" style="outlineConnect=0;fontColor=#232F3E;gradientColor=#F54749;gradientDirection=north;fillColor=#C7131F;strokeColor=#ffffff;dashed=0;verticalLabelPosition=bottom;verticalAlign=top;align=center;html=1;fontSize=12;fontStyle=0;aspect=fixed;shape=mxgraph.aws4.resourceIcon;resIcon=mxgraph.aws4.cognito;labelBackgroundColor=#ffffff;" parent="1" vertex="1">
          <mxGeometry x="412.5" y="74.5" width="78" height="78" as="geometry" />
        </mxCell>
        <mxCell id="UEzPUAAOIrF-is8g5C7q-112" value="Active&lt;br&gt;Directory" style="outlineConnect=0;fontColor=#232F3E;gradientColor=#F54749;gradientDirection=north;fillColor=#C7131F;strokeColor=#ffffff;dashed=0;verticalLabelPosition=bottom;verticalAlign=top;align=center;html=1;fontSize=12;fontStyle=0;aspect=fixed;shape=mxgraph.aws4.resourceIcon;resIcon=mxgraph.aws4.cloud_directory;labelBackgroundColor=#ffffff;" parent="1" vertex="1">
          <mxGeometry x="568.5" y="74.5" width="78" height="78" as="geometry" />
        </mxCell>
        <mxCell id="UEzPUAAOIrF-is8g5C7q-113" value="Lambda" style="outlineConnect=0;fontColor=#232F3E;gradientColor=#F78E04;gradientDirection=north;fillColor=#D05C17;strokeColor=#ffffff;dashed=0;verticalLabelPosition=bottom;verticalAlign=top;align=center;html=1;fontSize=12;fontStyle=0;aspect=fixed;shape=mxgraph.aws4.resourceIcon;resIcon=mxgraph.aws4.lambda;labelBackgroundColor=#ffffff;spacingTop=3;" parent="1" vertex="1">
          <mxGeometry x="490.5" y="211.5" width="78" height="78" as="geometry" />
        </mxCell>
        <mxCell id="UEzPUAAOIrF-is8g5C7q-114" value="Amazon API&lt;br&gt;Gateway&lt;br&gt;" style="outlineConnect=0;fontColor=#232F3E;gradientColor=#945DF2;gradientDirection=north;fillColor=#5A30B5;strokeColor=#ffffff;dashed=0;verticalLabelPosition=bottom;verticalAlign=top;align=center;html=1;fontSize=12;fontStyle=0;aspect=fixed;shape=mxgraph.aws4.resourceIcon;resIcon=mxgraph.aws4.api_gateway;labelBackgroundColor=#ffffff;" parent="1" vertex="1">
          <mxGeometry x="369.5" y="337.5" width="78" height="78" as="geometry" />
        </mxCell>
        <mxCell id="UEzPUAAOIrF-is8g5C7q-115" value="Lambda&lt;br&gt;function" style="outlineConnect=0;fontColor=#232F3E;gradientColor=none;fillColor=#D05C17;strokeColor=none;dashed=0;verticalLabelPosition=bottom;verticalAlign=top;align=center;html=1;fontSize=12;fontStyle=0;aspect=fixed;pointerEvents=1;shape=mxgraph.aws4.lambda_function;labelBackgroundColor=#ffffff;" parent="1" vertex="1">
          <mxGeometry x="580.5" y="337.5" width="78" height="78" as="geometry" />
        </mxCell>
        <mxCell id="UEzPUAAOIrF-is8g5C7q-116" value="Amazon S3" style="outlineConnect=0;fontColor=#232F3E;gradientColor=#60A337;gradientDirection=north;fillColor=#277116;strokeColor=#ffffff;dashed=0;verticalLabelPosition=bottom;verticalAlign=top;align=center;html=1;fontSize=12;fontStyle=0;aspect=fixed;shape=mxgraph.aws4.resourceIcon;resIcon=mxgraph.aws4.s3;labelBackgroundColor=#ffffff;" parent="1" vertex="1">
          <mxGeometry x="800.5000000000002" y="14.5" width="78" height="78" as="geometry" />
        </mxCell>
        <mxCell id="UEzPUAAOIrF-is8g5C7q-117" value="AWS Glue" style="outlineConnect=0;fontColor=#232F3E;gradientColor=#945DF2;gradientDirection=north;fillColor=#5A30B5;strokeColor=#ffffff;dashed=0;verticalLabelPosition=bottom;verticalAlign=top;align=center;html=1;fontSize=12;fontStyle=0;aspect=fixed;shape=mxgraph.aws4.resourceIcon;resIcon=mxgraph.aws4.glue;labelBackgroundColor=#ffffff;" parent="1" vertex="1">
          <mxGeometry x="800.5000000000002" y="123.5" width="78" height="78" as="geometry" />
        </mxCell>
        <mxCell id="UEzPUAAOIrF-is8g5C7q-118" value="Amazon Athena" style="outlineConnect=0;fontColor=#232F3E;gradientColor=#945DF2;gradientDirection=north;fillColor=#5A30B5;strokeColor=#ffffff;dashed=0;verticalLabelPosition=bottom;verticalAlign=top;align=center;html=1;fontSize=12;fontStyle=0;aspect=fixed;shape=mxgraph.aws4.resourceIcon;resIcon=mxgraph.aws4.athena;labelBackgroundColor=#ffffff;" parent="1" vertex="1">
          <mxGeometry x="930.5" y="123.5" width="78" height="78" as="geometry" />
        </mxCell>
        <mxCell id="UEzPUAAOIrF-is8g5C7q-119" value="Amazon&lt;br&gt;DynamoDB&lt;br&gt;" style="outlineConnect=0;fontColor=#232F3E;gradientColor=#4D72F3;gradientDirection=north;fillColor=#3334B9;strokeColor=#ffffff;dashed=0;verticalLabelPosition=bottom;verticalAlign=top;align=center;html=1;fontSize=12;fontStyle=0;aspect=fixed;shape=mxgraph.aws4.resourceIcon;resIcon=mxgraph.aws4.dynamodb;labelBackgroundColor=#ffffff;spacingTop=5;" parent="1" vertex="1">
          <mxGeometry x="800.5000000000002" y="242.5" width="78" height="78" as="geometry" />
        </mxCell>
        <mxCell id="UEzPUAAOIrF-is8g5C7q-120" value="Amazon&lt;br&gt;ElasticSearch&lt;br&gt;Service&lt;br&gt;" style="outlineConnect=0;fontColor=#232F3E;gradientColor=#945DF2;gradientDirection=north;fillColor=#5A30B5;strokeColor=#ffffff;dashed=0;verticalLabelPosition=bottom;verticalAlign=top;align=center;html=1;fontSize=12;fontStyle=0;aspect=fixed;shape=mxgraph.aws4.resourceIcon;resIcon=mxgraph.aws4.elasticsearch_service;labelBackgroundColor=#ffffff;" parent="1" vertex="1">
          <mxGeometry x="800.5000000000002" y="376.5" width="78" height="78" as="geometry" />
        </mxCell>
        <mxCell id="UEzPUAAOIrF-is8g5C7q-121" value="Amazon&lt;br&gt;CloudWatch&lt;br&gt;" style="outlineConnect=0;fontColor=#232F3E;gradientColor=#F34482;gradientDirection=north;fillColor=#BC1356;strokeColor=#ffffff;dashed=0;verticalLabelPosition=bottom;verticalAlign=top;align=center;html=1;fontSize=12;fontStyle=0;aspect=fixed;shape=mxgraph.aws4.resourceIcon;resIcon=mxgraph.aws4.cloudwatch;labelBackgroundColor=#ffffff;" parent="1" vertex="1">
          <mxGeometry x="800.5000000000002" y="491.5" width="78" height="78" as="geometry" />
        </mxCell>
        <mxCell id="UEzPUAAOIrF-is8g5C7q-122" value="IAM Roles" style="outlineConnect=0;fontColor=#232F3E;gradientColor=none;fillColor=#C7131F;strokeColor=none;dashed=0;verticalLabelPosition=bottom;verticalAlign=top;align=center;html=1;fontSize=12;fontStyle=0;aspect=fixed;pointerEvents=1;shape=mxgraph.aws4.role;labelBackgroundColor=#ffffff;" parent="1" vertex="1">
          <mxGeometry x="800.5000000000002" y="631.5" width="78" height="44" as="geometry" />
        </mxCell>
        <mxCell id="UEzPUAAOIrF-is8g5C7q-123" value="Amazon&lt;br&gt;CloudWatch Logs&lt;br&gt;" style="outlineConnect=0;fontColor=#232F3E;gradientColor=none;gradientDirection=north;fillColor=#F34482;strokeColor=none;dashed=0;verticalLabelPosition=bottom;verticalAlign=top;align=center;html=1;fontSize=12;fontStyle=0;aspect=fixed;shape=mxgraph.aws4.cloudwatch;labelBackgroundColor=#ffffff;" parent="1" vertex="1">
          <mxGeometry x="800.5000000000002" y="701.5" width="78" height="78" as="geometry" />
        </mxCell>
        <mxCell id="ZFzZCjT-4XjI5NJuBLVP-5" style="edgeStyle=orthogonalEdgeStyle;rounded=0;orthogonalLoop=1;jettySize=auto;html=1;" edge="1" parent="1" source="ZFzZCjT-4XjI5NJuBLVP-1" target="ZFzZCjT-4XjI5NJuBLVP-2">
          <mxGeometry relative="1" as="geometry">
            <Array as="points">
              <mxPoint x="270" y="951" />
              <mxPoint x="270" y="836" />
            </Array>
          </mxGeometry>
        </mxCell>
        <mxCell id="ZFzZCjT-4XjI5NJuBLVP-6" style="edgeStyle=orthogonalEdgeStyle;rounded=0;orthogonalLoop=1;jettySize=auto;html=1;" edge="1" parent="1" source="ZFzZCjT-4XjI5NJuBLVP-1" target="ZFzZCjT-4XjI5NJuBLVP-3">
          <mxGeometry relative="1" as="geometry" />
        </mxCell>
        <mxCell id="ZFzZCjT-4XjI5NJuBLVP-11" style="edgeStyle=orthogonalEdgeStyle;rounded=0;orthogonalLoop=1;jettySize=auto;html=1;entryX=0;entryY=0.5;entryDx=0;entryDy=0;" edge="1" parent="1" source="ZFzZCjT-4XjI5NJuBLVP-1" target="ZFzZCjT-4XjI5NJuBLVP-7">
          <mxGeometry relative="1" as="geometry">
            <Array as="points">
              <mxPoint x="270" y="951" />
              <mxPoint x="270" y="1036" />
            </Array>
          </mxGeometry>
        </mxCell>
        <mxCell id="ZFzZCjT-4XjI5NJuBLVP-1" value="广告投递部门" style="outlineConnect=0;fontColor=#232F3E;gradientColor=none;fillColor=#232F3E;strokeColor=none;dashed=0;verticalLabelPosition=bottom;verticalAlign=top;align=center;html=1;fontSize=12;fontStyle=0;aspect=fixed;pointerEvents=1;shape=mxgraph.aws4.user;" vertex="1" parent="1">
          <mxGeometry x="120" y="926" width="50" height="50" as="geometry" />
        </mxCell>
        <mxCell id="ZFzZCjT-4XjI5NJuBLVP-15" style="edgeStyle=orthogonalEdgeStyle;rounded=0;orthogonalLoop=1;jettySize=auto;html=1;exitX=1;exitY=0.5;exitDx=0;exitDy=0;" edge="1" parent="1" target="ZFzZCjT-4XjI5NJuBLVP-1">
          <mxGeometry relative="1" as="geometry">
            <mxPoint x="730" y="952" as="targetPoint" />
            <mxPoint x="482.5" y="826.5" as="sourcePoint" />
            <Array as="points">
              <mxPoint x="540" y="827" />
              <mxPoint x="540" y="951" />
              <mxPoint x="640" y="951" />
              <mxPoint x="640" y="1086" />
              <mxPoint x="145" y="1086" />
            </Array>
          </mxGeometry>
        </mxCell>
        <mxCell id="ZFzZCjT-4XjI5NJuBLVP-2" value="AMS" style="shape=image;verticalLabelPosition=bottom;labelBackgroundColor=#ffffff;verticalAlign=top;aspect=fixed;imageAspect=0;image=data:image/png,iVBORw0KGgoAAAANSUhEUgAAAEYAAAAxCAYAAABnCd/9AAAJfUlEQVRoBe2a+28U1xXHXVVq/4KqP7YptkyqKFIalaYS5Kc8KvWXVm0kolRqJUQLXuy6KglvBdOGRqGEYGPzLhC7gCmYhxM7AUKIA6SkEGj9Wj8xtokNNt717uz78anOjIedmZ3ZXRa7VdW90mhm787cnfns95x7zrlTRKHZEiiy7S10UgDjIIICmAIYBwIO3QXFFMA4EHDoLijmvwnmcneMqqNhlu0KsuFwiIsdMYfbse8OxuDmFLSMQvMwXJ0ET9j+3NnqnVPFxBPwxrEAJSsUSisjlJSHKK2QfZD1DUHC0WTW57gfgvoBqBuAHX2wo1c73tsHA9NZL8/7hDkFs6s1RGlllOIyL8VlHsPmpbQyzs7WUMYbD8Sgvl8Dsq0djFu1G3a5wRPJOETeX84ZmIsdUb5bqVDsmjYAScEpWeFn0Vov0wF71Ujve8NQ228GYoQjKro0nvezZ7xwTsDcvpdg0Tq/akJmpaTAiIpKXF66RuK2N3j1nr1SjGBqeuHELdvLH7lz1sEEwkle3uqnpCJkq5QUKC+lLi/u0XQwt3ywww3vdDqrRQCJvzn5vwJm45GA6mBTAIwqSR2LQ37u9WmUkNmUZLbZ2wPV3ZmhCBgxJVHWXLRZVUzjpTAl5QEbZ5sCogMrrQhzpM0850bicGxQU4LRZOyOxfnu7wF/dC6wMHvZ9Y3BGE+tFGfry2JCHlVRrx0MkDCLhY/uZHa2OiAxsVo33PbNDRQZdVYUM+FN8EKVf0Yt6erQVSJ7iWF+8id/2mzUPgW1vbA9i18ROOJbrk3MHZRZAROLw/KdCmIaRgB2xzJFL1jlp+eO2eHeDUN1O1RdSbDpSkKNV6q77H2MTN+tI5C0qE0eRolpcU3IPHxeBB9ZMdXNwZygFLu8zC9XaLlmjsh8Eag4GmHBhiClKzw8XuFl0SYfv3s/ihVOTQ809EPIklHcC0LzKOzugZpO2N8LF8ZAeQT/80hgzt6IML9C/Io1sk03J0kFtp4Kmv49UduKvQrF5WG+s8xD8XIP85Z7eOw32r7sZOQBnO1d2oNPWILlsQDs6dV8k/iedzpAzq0bhMMDINFzPi1vMCOTCX64xoeYh53ZGPvEzJbu8BOJmfVf816IEgcTFFBPrvSy+WpC9Ts1bnB7zI8oijjUD6Ik3TEb9zsH4ZMx8zW5fsobzNZTkgfFskKR6fu5jX7GPQnTPZ27GeHxykBGtX371x6WN0XYPQRtlgeMJ+H0bajts4cigLZ3w343RM0/bboPpw95g/nFNpmFgpnBuKZ58vcK/+gz63lwXNSmZFWbgFnSqPkPAWFsV+5mhiJgxLTquvKLdfIG8/JWX1YwAu6vn5iDOH8oyUtvCdRsKYOHeS6F1c0xApZZpt87kzJ0OKtFVUwX7HND5D+pmM3HgzMlhXRHK/5FnO36hoDxT1aP1zXkljJIVv70KgX3uPmppkKwp0czE6M/sTuWlEGCxnxa3ooZGIvzvZXifJU0c5Ki1Etb/Ig6jK3hoqQMWcxvpm5jpzZJGY5Iwao3s1IEkqQMf+nNz4zknvMGIxeLA31mTUB1wpJNy+wjhamfbwkwMmH+p8XPiL9xqs+YZrHKCGvrFZKWKO7s6MOlDCN+49/ycMePBEZ+anhCKnERKvYFee1giL9djuIPmaHIjCQzk5Zg2pueDkZ8j/ggX9CstnYP7JIE040a20i8Ymc+0id1mi8mHw6E9ezsYBIRGGuBzj9A1xswfg6SFm9oHdXwWWKXpbW5pwzPrPEjZmpsdxTYcCHJL+vDvHIgxG+bo/z5ZtI2r5KU4UNJGYwDSLoQhW4P/H0CbkzBpCVQtJyexZT8A3BhIZwogpMz2/EiaHsBgrl5NYl2xRHrinDcu7xqXHPupjmOn/QlWFwTpLQ8wLeWetRNIuOFG3283hZ/EBmLUsT3iA8Km7mqRfMD/ZoZCrhaKa73wKfjYNZ2Co+zYsJT8METGpAjRWDcBNJHz0I8M/aW6xE1P8otZQgjeZexReOwtE5LGSRdMEKVGOf766Z581pSSwO6tdRAVhWMTdQmEMQZG01PjXEGnQtd9mCSCbiy2B6KDqipCIZPGO/BdOwejamZdK4pQ9kuBcmdjO3tLGoTBf2qPqz6HUkZ+rzGq7UZ6WAfyHdGKPqxmlM5BID2YLq3gDy4DsFuL6q55jLfycwnqfz/9M0cImO1PhPgxU1+JqfNXqFVV1va0ktKOWJSz7+lIDnRZctqgUTKp4ZyKKj3wKDN+lQ6mLGz0PQVOJoDmKtL0sBIVe7VA+Jsc/ErPrXqJ9U/Y5N6zQ9WZ08ZBMyPtiU4M0xaNVCWVTLlUbpqxC9JJG1tZjDKLTjzDRAHa6cSY58opq/WOh4HzkvGnD3cV5dPygM0fmpOGbxKIme1zSsLsOzdMJbogF5JGXq0EoQOwG4vU351J0yZb0F9phQYmYLbfpzZr+hgBNzpb0LorglM53CcJyp9OQdxsqJgbX88ljnVeOCAXT6eelWhw7L84ovCbol1clhlkBmqZdh6B9rnFBjPDWgsym5CYmJial++nzZi1dHcHkoUJWtPsgZlbPe8CZ5e6c2hoO5Vg0Wr2mQsqQVLjmSnEGOfOGRxzFIOtWspMEOHsztcUYw45c7NdmPxytvZHa7kVgvX+bl9zzIFATcG47mr7XC62uSmpB4si/9GCNZjKbjXueFL+yHUZ0uBGT2pBXK6udjtxa9c+plj5Ltkh5K5nOCaVtezL7abgzidspiiLNumvwSQmok0tSlpatPHOJctn+rQKn7/vK9fYb9PgQmMQNPXNHOygyLRb2sphJ2TkD0fShLpXNWTJHP3B5YIzHBfYlrPb7TP2MW3qGpb62fIRm36MD3ezLOR+JXzo/rZzvsUGDmno0pzvtapWk0Jvg5T151HAqZ8CV6s8tlM1dprH5X7A8g7M5nayc8i6qxWYlm4Eyjy9sTH7eZVButYUlaW1UwphltNSHxP4yBI+SJbM4NJyqtLq6HpqxogMR3xKa2Pwfj5bGOp3/ePJVi8NaDWXaQEIdv8cj+rDgXTMmanAQ9dCLFgtZQzIur1EhM9u16h+fPMUPTxZNn29LA2M6m5Ub92fOo2yKyVSzOD0a/wdkJ/HXRvhpHjELGU5/XzHPbyplRbZ4x95yK8+3GUfw3l8BdZxpJViBOfxdhzNsqZz6PIaufDNJnvRhT44j5cvw+jSnrGnWk8ezCZrvg/+a4AxuGPLoApgHEg4NBdUIwDmH8DroeMXz/X1ewAAAAASUVORK5CYII=;" vertex="1" parent="1">
          <mxGeometry x="412.5" y="806" width="70" height="49" as="geometry" />
        </mxCell>
        <mxCell id="ZFzZCjT-4XjI5NJuBLVP-16" style="edgeStyle=orthogonalEdgeStyle;rounded=0;orthogonalLoop=1;jettySize=auto;html=1;exitX=1;exitY=0.5;exitDx=0;exitDy=0;" edge="1" parent="1" target="ZFzZCjT-4XjI5NJuBLVP-1">
          <mxGeometry relative="1" as="geometry">
            <mxPoint x="730" y="951" as="targetPoint" />
            <mxPoint x="506.65999999999985" y="946" as="sourcePoint" />
            <Array as="points">
              <mxPoint x="507" y="951" />
              <mxPoint x="640" y="951" />
              <mxPoint x="640" y="1086" />
              <mxPoint x="145" y="1086" />
            </Array>
          </mxGeometry>
        </mxCell>
        <mxCell id="ZFzZCjT-4XjI5NJuBLVP-3" value="" style="shape=image;verticalLabelPosition=bottom;labelBackgroundColor=#ffffff;verticalAlign=top;aspect=fixed;imageAspect=0;image=data:image/png,iVBORw0KGgoAAAANSUhEUgAAAOEAAABRCAYAAAAkecEPAAAUw0lEQVR4Ae1dCZRUxbnOeSQSzfqyaJKX95K8nCyKKPvIoiyyyTKgghIRCIpGEQLKooiIiAsMMOwgIKuKgAyMbEFZZVEER0RjAAVhunu6e7pnuqf36emZ/nP+i9Xcvrfq7r1gqs6pU/fevvev//5VX1fd+pf6FvDEJcAlkFMJfCuntfPKuQS4BICDkHcCLoEcS4CDMMcNwKvnEuAg5H2ASyDHEuAgzHED8Oq5BDgIeR/gEsixBDgIc9wAvHouAQ5C3ge4BHIsAQ7CHDcAr55LgIMwz/rA8Y9qYf6SGpgxxw8zi/2wbGUAzp1P6Oayvh5g74EoFC/ww4w5Piia64dV64Lg8dbrpsUfyKwEOAgzK1/N1B0VCRgyohKub1Euyze0LIcXinyQ0IjFL87VQf9BThkdpH1TgQ2WrAgAgpSn/JAAB2EetMOFiwno0NVBBY0YlGMmeKGhQZnhc+froF0XuyqtcZPUaSnXxH+1SgIchFZJ0iCdaCwJ3QsrVEFDwPjam0FmTYn6JNz5F5dmWguX1jBp8R+yJwEOwuzJmlrTrHl+zaBBILa+zQ6RSJJK662tYV20cGp6/qs6Ki1+MXsS4CDMnqxlNQVDDdCqg/rUkYyCpNy4OSSjhRfuvk/7KEhoTXm+mkqLX8yeBDgIsydrWU2bS/WNXAQ4I8d6ZLRw1ZP8rqds3s4G8Th9ZJVVwi9kRAIchBkRqzai4yd5DQGnXReHrIJ390UN0ULAfniiVkaPX8ieBDgIsydrWU19B9LVCFpGMqmKYe0bQcMgXLeevdgjY5pfsFwCHISWi1Q7wYJO+r8HCUBrJVPIRa/UGAYhPstT7iTAQZg72UPLDjbDwOEgzGHDWVw1B6HFAtVDrmMP7fpBMgKSUjodXbk2YBjQi5cH9LDN77VYAhyEFgtUD7nBD7gNAQensdK0e0/EEC0E9ds7IlJy/DyLEuAgzKKwpVXNWaBPUU9GwWEPV0pJwcXyhGEQ2hwajVJltfILVkiAg9AKKRqkcfpMHdzQUv93IXpW0NLtvfVPb+8Z4qKR4teyKAEOwiwKm1bVA4/SPSfIqCctm7axgctNH7mWLNf/Xbj7XT4VpbVLNq9xEGZA2tFoElBvN+yhSijo5IDWt9ph6EOVsGlLCOrr061TbI56aKVjlfT5l31Mjv3+Bk3eGATYo57wymi5K+sFP8Ye/SqgeVsbdO1TAeMmVcGxEzHZvfyCNRLgILRGjikqn3wah0492W5J9w51Q1V1uj/SkQ9i0LK9us6w/70upvE2YeC9I1HBZ5AAjVXiolAgmM7HO/siwh8G65nHn/Sq1k/44KV2CXAQapeV6p2f/jMOzdupg6lwoBPC4XQAnD5bB/cNp6+W4nfjY497IBBIf4bF0NEPYtClF/378OYCm+BlH6tNH5EPHo4BTnVZACTXcVFIq3Mxiz9+PV0CHITp8jB8hlNQpRGQdGJSTn2BPq08eSoOy1cHhBAX8xbXwKtrAvDZ53HdfMXjALveiQD6DCIdDJmxeWsYKj1yl/pqXwO0u139z4Pwjqu6PFknAQ5Ci2S5aJk+s7EmLcvzxpcPY9AQgGkpcTTFcBw8WSMBDkIL5IiLLR17sL8DWR37uRfpo6EFLGkmgSN4y/bq01DpOyxYwu1NNQtZ5UYOQhUBafm57GRc10hCOnT7rg7VmDFa6jdzj1EXqD4DuH7RjNzFz3IQiqVh8Hj1Ov36OQLEczkOL/HybH1TUcI3TqdD4fTFHYPi+49/jIPQgi4w7SVjHRk79Lv7jCnLceGlwpmAC+UJ8FbJF1u0vtaIx/QZCxAQYokWPzyZlwAHoXkZglEPeezIJaVhzRygXm/1a0FAU7OmbdLjk7btbIexE71w6Ig+pTrqLcXA0nP8IVfga247pRs5CJWko/G3p6dWGe7IG0voQZvEVSeTAK9vCEJBR21qhHuHuuDsl9pGqQGD9QeHIkA9eYqHxRC3k9FjDkKjkhM9V7zQmDcEdubde5Wno9FoA4wcqz8WDaoRSneoj7IP6rRdJQDEkqspRJ3AxCEHoQnhkUf3v2c8yBJayrASWrWwrGjEYGAdY/j8DYzwiKROtEVlPa90/bbu8mBThOY3pQzOnQO+MaNlue7TU5a+oioIq0f+DUzlUY+C/+mnIFA0A8IrX4X4RycgWcfueJa+nUFi9R4PhNeuYWbpRg5ogqbF9lPaqdGwW+ohL2YZbTWlz+g9b9KqHI4eY08bt+8y5gz8nxCv1H1rOyi/6r9kOfp2qbiZTB+rgpDGhNlrth99Dyp794TI1hJI5qEhYu2xD2SCF79zMhqVCV6v1QmCiWW6hsS3bjMWk5QGUjQkqKmh251e+gPRp6xH9QTueSFO3gF3QmWfO3KeI6VbxGyB/8kJUNm1s6Fs/+mPqf3A2aypLno4CCmlnIBQ3KEr/vh7iO3do8Rj1n8zAkKfvx46KnhPSMGB32xfXaSbfqE7URuNizBSuqzzCZOrmHLU+037YpHc0sf24+9TO6y4rbNxHJw/N+09K3v1yDlfnn5903iSnuQchELDNG4E/qcmSnnL2bkRECKzZSdrNYe1R39DWsKV0IdHe0xPQ2lg3LNfPoIjD7W1SbhL40YyQ0a4qRG7OQjl01byp3NlgPDreXe+ANEoCLFD/+tMHfS6kx3Ut1lbGygF2126Qp8hOA1srGu4mQzGoqEldJN6cCQb/LjIM3laNaCRAC1xEH5DQGhr3Ahq9++jtXFWr5kBITKKiy3bdkYAp4C973ZCt74Vgpc9elo4XXQQ4HO4s26TVvq+z1iAY13vM8Cp6Jd4+GgMnp1eDf0HuaBbnwoYNMwNRcV+OH2Wgb6vW+ZKAmHlHd2hZvq0rOXwm+sV+29+TEdFK1DO5k0VGc7Gj/Gyj8Dxq2uZGWL6rFK08HyirBZwlKSB5+77nDBqnCeVRz7OHrFoz0uvDR7uBtwX0coUmPGSvk49bSqUX/0d+vda40YQnDUTggvm6c51Jz9Oey3aN2Fgzqy0exqqqiC6+x9pOaZjMEiUl6c9i7Twj1xrMgXCqr8OgXqHXT3byiH+cRmEFi+Eij/9ni54ERDjn5zUyv834j4EoJI70dZt6VY1uIuSFFh6zzH+Dbox5SrVHnqP2Q/c7dpYxhYThHV10ODzCTmydYuMF8evrkv9Tu5jlYHi2bLn3R3app5PhtLbT/pypkDoG/WolJ7qeTIYBFebFjKmyUcslsF5xap0vik3HDgUBdyeTAlEmQAh1ofmbX6G6iLT8vWP/TuzD6BO2arEAiENeOI+aOVxRhdmjIAQhRvdVspsAHx53/gnZG1Q98/PILJxg+Ec3b4Nat8/Cmr/SlhxQ3U1REo2M7Oihl3GOfvC+k0huLG1MgARLJkCIdLu2b+CuVjD5pz+C+pPG7xe9ezxgOM3v2b2gfgH76vTkNbjk6tNkEsOQnpbQd2/Pmc2AIIQLXSkqQa/IURTVqPHtmuuAneXjhDdUiKtInVudmEmRYhxgAs3L8zUbi6WSRAiEG/pZIdjx81/56KOzmi7mH3O2eJmqrQ5CKliAag9eECxsdDKQZqsAqG4sT2FvSFZIw/TkEkQhsNJeHSMvoWVTIMQgYj716OVjpnEQUhXU+TldBSnsWIwSI9DryyV9YVMgBDrdXdsD0mJ8itTIPzyHOoQ6aEIEQisnA0QkrrRQdmoae+VBMKGmhqIn/pEyKEVy2T90X7dz1K/k/tYZc2UybLnXa1bpJ5PXPhK1p/FF7K6MIPfY4EXp0N540YypsVApFmpZwqEWG9g1kyxTITlZTE/0mOa7WgaAcoJelqoGXnfVFAO3fo4YOAQFwwadjkfPJxu6SJdHe13rxMmPuNN5ScUDL/HTbp8Hz6DzxIAkhI9N6p9+r31ryQQipsIzSalbez4n1+Ib1E8Di5eJHve3elWxWfEP5oCIX5cV3broprdnW8D5w1/AtsPrpYxK315V+vmYv5Sx8FFCwQaSEdPxqVmaR3Sc8fv/g8A7cW+TlaPhJtKwoDeDKSTS0v06Tt4KAKxGN3ImvBFSikIpTvthkINzLqkdbB2+O1e6NTtL8gCISryXW1aWpKx7aXth+d6vwmJLLGkgRCNt8OrV6nm0KsrwNWqmYynrIGQJgxT167+DtS+d1AsH0uOcTrg6d1TJigxr3VnTqfqshKEpdvDgF4HUuDhOeoG31Fx6k0xJTrIBgiRv+6FFeDxah8RWSB0t79FxL25Q+wf4nYjx1aDkNA1Wl6RILT98BoIv/6auRZSeBr1kzjPZwk1tm9v6mmrQIgG3SwVBE49y04aW5HMFggRiBj+Qqu3GQfh5YWZyh5dU/1J7cDUdJTVofVed/z6lxAvK1Pj1fTvnp7d2CDctTNF3woQop9e977y7y0yIuL21kZTNkGI/GIYfS2Jg/AyCIOzi7SITLgnL0CIoLX//CcQWvaKZsaN3Oi9u3/WQDizmB13pmMPu+A+JH0HjF42ZoIH0Fb0zkGX8/6D6XFosg1C/J49d55teE7e40oFYe2Rw4B+rVZkV4uboea5Z0Hz9AEA8gaEZPT0TxxP2pRZJr44C+F1ayEwu0iX0bCz6fVZASF6sbOMsXFkeWFmtezd9h6IALoLkZFSXKqpKDKxMCOuH4+fnMJ2CiYvwwIhdm4MbWJFRh0y6Svi0sw3IeE/V2XegRAFG9nwJlUeqORH416x8K06jlk4Hd2wWTk0xe496SNbIpGELr3Ye1nkAwjRvjUSUV69ZYHQqjZSomMEhPUXLwKaM2Yyo25RLZkCYfVjj4CwmUJDg2rZEAhA/OgRqHpgmKqe0PH/v5EFgwotWQw2luuLBeZsVoLw7+OVAzRJF2ROn1Hey8JKEGIIRXFiqSikIyGeH35feSHpSgMhfv4oAduK32gmmGL547EpEBo14A4tmK/68tGd21O8Cm4vGQQgCttKEPbox16Qwc6Mq6bidOqzWuo0lAAhX0CotpjEQXh5YYYAOG9BiIrxiuv/qAhEv8iTwt2xg+K95IXNlFaCsIXK1td79qdPR3F0aqGwPVm+gBAjyiklDsIrCYQAUDV4kCKwPH3uENobnYYx7AULYO4utwlWDdFtb4NadrUvYNKxEoRKizI4uhUvlHfmZSvZsWX0ghD3S7yxNX2Rx8x09OXZyjv0skCIFknoeW9F9o0aSW1DI9+EStNR1y2toGbqFE25srA3s4/m70iIfl59e1GFScCGgVcxocsRuSYtEVRJpei5kr9tz139mLSsBKHahqGF9zghKTKTQzbxfN36AHWBRg2E85fIwfHMNPr+GGZAuGiZsm6TBUIrLWbiHx6jtqERENZ9XAbO6/9ApYd9DfnGRRuxSaO4SyEvgtqLMUjYf/FzRZc5Qisn34T1LifY//sHzJdHAWAwHkyhpUuY9wUXLSTvoanMlp5w8APq240dOJQ+JRW/AOoBESwk4+qpOEn1hFOm09UHaCeKRgPiLAW/noWZt3eweUb+8hGEHkrcUQxHQRJ60CDfStZUzmY3Ciox4m0T3b1LsJeWDgrkHG2kUdWG4TC0pKyDMHHuS8ChnjDMKqse/KvAP7o1se7JVxAWzWUr6sliS+c7HIY8FVAoUhB2L8Qdf9OBqqXx8R49IMS9EJVSPoIQHQyk/QdjHUkTAsY3YZyik0HFb/8XXM1ulNFL0W/cSPjMqldxXZLWbQqErhY3ge/xMZpy1dDBwvCuVc0QXrNa4BXDTKReUqKKQO8M1lRB+qJ4nq3pKC7lE7AplWgVoxQCkfYOeE0KQqxjw1v0YMIsGuS6VhB27VNBHmGW2QBhbPcuan9gTUddHdrK7g+tWM58h8TFC1A17H4o/+63Zc+x+iFeR7DHTxxn0lX6wRQIlZgy8xu6vmCcF0woFCVa+PKoQ0QLGrWsFGDKym9CXBjp3FOb8y6Glli+qgYCAe3eCjQQ4qahq9YFqNGxlTqAVhDifWqJBULnn/8AkfVvmM7hVSsBQ2LS+gMLhM4mf5bdH3lrk/KrJBIQLJqhqs8mfFQNHwrJsPGoBHkJQmlcSCXwEEGYLa0EIbYwbuqpNApKf0P7THTkfWpKFRQV+2DuIn8q48LLwlcu5XmL/TB7Pjs+Tdsudhg93gMvzUqnIaYnPr7/QfWdelvdatMUlY0FQrNto+V5d1t6mET7T34oAyG6Q0U2bRS+2/DbjWQMMOYdeBfYr/2p7Bk1HnCTI/z+xJkhoUfK0KqViqDPOxB6/3LPpRDWIrZjO3cwl4DVhKP1d6tBiIspA+9X7+BSMObjOUaF05JyCUJUeUlTg9NJBVPiq/NQPWI49Tet/UXPfRmNMaOHEbV7bd//rrCPoWAGJ5UmAGQyvAXyZjUI8RXsjgR06Mq2Cc1HwEl5UtrNSdpMuQShuP0IX7Gd22VAwxEL+5geEKKe2t21M8R27YD48Q8v6bivuUpGm9XH8x6Ejut+BtV/GwHoGaGWoiWbwdmEHt6AJQCt18WNaIU/IXkXdAFSMs6Wdvp8Op/0bDVI1SPkvWhlLkCIAPFPnkRjB3yUAMMY2AuTFhA6fnkt+MaOBox5K01oRFLz/HOC+5NaHzMNQldBK7AktysQVpBwhbL6kYcBY8bEDh4A3aG9GhoAlaxo7YBBozDSlRU5cfZMSs71TqcQBRwjgdOy3o1N0bVp4uQqpquSVuDd0NIGaAgw/JFKGD/JC1NfrIaXZvmF3ZLGTPDCgMFuRfM3rfW07WyHklL9Cw04UngHDcxKxtV2/zNPCzs/pxpOclA9eqSMl/DaS6vuwaWLZb8h71VD7hOsZGL798qcCCTkL50mkwIPuJCDCzS091eLKK76TUitmF80JIEzX9TBs9N9UNBJfYqKYTFwizUE16trgnD8o1oIhtI9IGhMoCEOToN374nCzLl+GPqQG9rdbte0SFQ40AXr1ocgFDamc6Txw6+pS4CDUF1Glt+BlnboObFlWxjWvB4UVAtvbAzB9n9E4P1jMbhwMaFb1aDGJO458fnpOth/MAolpSFhj8TVrwXh9Q0heHdfBJxu7SoStbr47/okwEGoT178bi4ByyXAQWi5SDlBLgF9EuAg1CcvfjeXgOUS4CC0XKScIJeAPglwEOqTF7+bS8ByCfwbnBmcBkgVmXIAAAAASUVORK5CYII=;" vertex="1" parent="1">
          <mxGeometry x="340" y="921" width="166.66" height="60" as="geometry" />
        </mxCell>
        <mxCell id="ZFzZCjT-4XjI5NJuBLVP-17" style="edgeStyle=orthogonalEdgeStyle;rounded=0;orthogonalLoop=1;jettySize=auto;html=1;exitX=1;exitY=0.5;exitDx=0;exitDy=0;" edge="1" parent="1" target="ZFzZCjT-4XjI5NJuBLVP-1">
          <mxGeometry relative="1" as="geometry">
            <mxPoint x="730" y="961" as="targetPoint" />
            <mxPoint x="483.3299999999999" y="1041" as="sourcePoint" />
            <Array as="points">
              <mxPoint x="540" y="1041" />
              <mxPoint x="540" y="951" />
              <mxPoint x="640" y="951" />
              <mxPoint x="640" y="1086" />
              <mxPoint x="145" y="1086" />
            </Array>
          </mxGeometry>
        </mxCell>
        <mxCell id="ZFzZCjT-4XjI5NJuBLVP-7" value="&lt;span style=&quot;white-space: pre&quot;&gt;	&lt;/span&gt;其他第三方平台" style="rounded=1;whiteSpace=wrap;html=1;" vertex="1" parent="1">
          <mxGeometry x="363.33000000000004" y="1006" width="120" height="60" as="geometry" />
        </mxCell>
        <mxCell id="ZFzZCjT-4XjI5NJuBLVP-9" value="&lt;font style=&quot;font-size: 18px&quot;&gt;1、投递&lt;/font&gt;" style="text;html=1;resizable=0;autosize=1;align=center;verticalAlign=middle;points=[];fillColor=none;strokeColor=none;rounded=0;" vertex="1" parent="1">
          <mxGeometry x="170.5" y="926" width="80" height="20" as="geometry" />
        </mxCell>
        <mxCell id="ZFzZCjT-4XjI5NJuBLVP-18" value="&lt;font style=&quot;font-size: 18px&quot;&gt;2、点击信息&lt;/font&gt;" style="text;html=1;resizable=0;autosize=1;align=center;verticalAlign=middle;points=[];fillColor=#FFFFFF;strokeColor=#006600;rounded=0;" vertex="1" parent="1">
          <mxGeometry x="312.50000000000006" y="1096" width="120" height="20" as="geometry" />
        </mxCell>
        <mxCell id="ZFzZCjT-4XjI5NJuBLVP-23" style="edgeStyle=orthogonalEdgeStyle;rounded=0;orthogonalLoop=1;jettySize=auto;html=1;" edge="1" parent="1" source="ZFzZCjT-4XjI5NJuBLVP-19" target="ZFzZCjT-4XjI5NJuBLVP-22">
          <mxGeometry relative="1" as="geometry">
            <Array as="points">
              <mxPoint x="131" y="1267" />
            </Array>
          </mxGeometry>
        </mxCell>
        <mxCell id="ZFzZCjT-4XjI5NJuBLVP-24" value="&lt;font style=&quot;font-size: 18px&quot;&gt;3、点击信息(包含&lt;br&gt;&lt;div style=&quot;text-align: left&quot;&gt;设备Id,点击事件，&lt;/div&gt;点击业务Id)&lt;br&gt;&lt;/font&gt;" style="edgeLabel;html=1;align=center;verticalAlign=middle;resizable=0;points=[];" vertex="1" connectable="0" parent="ZFzZCjT-4XjI5NJuBLVP-23">
          <mxGeometry x="-0.1648" y="-2" relative="1" as="geometry">
            <mxPoint x="32" y="-15" as="offset" />
          </mxGeometry>
        </mxCell>
        <mxCell id="ZFzZCjT-4XjI5NJuBLVP-19" value="广告投递部门" style="outlineConnect=0;fontColor=#232F3E;gradientColor=none;fillColor=#232F3E;strokeColor=none;dashed=0;verticalLabelPosition=bottom;verticalAlign=top;align=center;html=1;fontSize=12;fontStyle=0;aspect=fixed;pointerEvents=1;shape=mxgraph.aws4.user;" vertex="1" parent="1">
          <mxGeometry x="92" y="1310" width="78" height="78" as="geometry" />
        </mxCell>
        <mxCell id="ZFzZCjT-4XjI5NJuBLVP-29" style="edgeStyle=orthogonalEdgeStyle;rounded=0;orthogonalLoop=1;jettySize=auto;html=1;exitX=1;exitY=0.5;exitDx=0;exitDy=0;entryX=0;entryY=0;entryDx=0;entryDy=52.5;entryPerimeter=0;" edge="1" parent="1" source="ZFzZCjT-4XjI5NJuBLVP-22" target="ZFzZCjT-4XjI5NJuBLVP-25">
          <mxGeometry relative="1" as="geometry">
            <Array as="points">
              <mxPoint x="421" y="1265" />
              <mxPoint x="500" y="1265" />
            </Array>
          </mxGeometry>
        </mxCell>
        <mxCell id="ZFzZCjT-4XjI5NJuBLVP-31" style="edgeStyle=orthogonalEdgeStyle;rounded=0;orthogonalLoop=1;jettySize=auto;html=1;exitX=0.5;exitY=1;exitDx=0;exitDy=0;exitPerimeter=0;entryX=0.5;entryY=1;entryDx=0;entryDy=0;" edge="1" parent="1" source="ZFzZCjT-4XjI5NJuBLVP-25" target="ZFzZCjT-4XjI5NJuBLVP-22">
          <mxGeometry relative="1" as="geometry" />
        </mxCell>
        <mxCell id="ZFzZCjT-4XjI5NJuBLVP-25" value="用户信息" style="shape=cylinder3;whiteSpace=wrap;html=1;boundedLbl=1;backgroundOutline=1;size=15;strokeColor=#006600;fillColor=#FFFFFF;" vertex="1" parent="1">
          <mxGeometry x="577.5" y="1212" width="60" height="80" as="geometry" />
        </mxCell>
        <mxCell id="ZFzZCjT-4XjI5NJuBLVP-30" value="&lt;font style=&quot;font-size: 18px&quot;&gt;4、设备Id,点击时间和业务ID&lt;/font&gt;" style="text;html=1;strokeColor=none;fillColor=none;align=center;verticalAlign=middle;whiteSpace=wrap;rounded=0;" vertex="1" parent="1">
          <mxGeometry x="460" y="1230" width="100" height="44" as="geometry" />
        </mxCell>
        <mxCell id="ZFzZCjT-4XjI5NJuBLVP-52" style="edgeStyle=orthogonalEdgeStyle;rounded=0;orthogonalLoop=1;jettySize=auto;html=1;exitX=0;exitY=0.5;exitDx=0;exitDy=0;" edge="1" parent="1" source="ZFzZCjT-4XjI5NJuBLVP-34" target="ZFzZCjT-4XjI5NJuBLVP-51">
          <mxGeometry relative="1" as="geometry" />
        </mxCell>
        <mxCell id="ZFzZCjT-4XjI5NJuBLVP-34" value="&lt;span style=&quot;font-size: 18px&quot;&gt;用户流水&lt;br&gt;(kafka)&lt;br&gt;&lt;/span&gt;" style="shape=ext;double=1;rounded=1;whiteSpace=wrap;html=1;strokeColor=#006600;fillColor=#FFFFFF;" vertex="1" parent="1">
          <mxGeometry x="541" y="1470" width="78" height="60" as="geometry" />
        </mxCell>
        <mxCell id="ZFzZCjT-4XjI5NJuBLVP-35" value="&lt;font style=&quot;font-size: 18px&quot;&gt;5、用户信息&lt;/font&gt;" style="text;html=1;strokeColor=none;fillColor=none;align=center;verticalAlign=middle;whiteSpace=wrap;rounded=0;" vertex="1" parent="1">
          <mxGeometry x="479.5" y="1300" width="80" height="40" as="geometry" />
        </mxCell>
        <mxCell id="ZFzZCjT-4XjI5NJuBLVP-40" value="" style="endArrow=classic;html=1;exitX=0;exitY=1;exitDx=0;exitDy=0;" edge="1" parent="1" source="ZFzZCjT-4XjI5NJuBLVP-22">
          <mxGeometry width="50" height="50" relative="1" as="geometry">
            <mxPoint x="378.0124999999998" y="1290.9734199999998" as="sourcePoint" />
            <mxPoint x="363" y="1350" as="targetPoint" />
          </mxGeometry>
        </mxCell>
        <mxCell id="ZFzZCjT-4XjI5NJuBLVP-53" style="edgeStyle=orthogonalEdgeStyle;rounded=0;orthogonalLoop=1;jettySize=auto;html=1;exitX=0.5;exitY=1;exitDx=0;exitDy=0;exitPerimeter=0;entryX=0.5;entryY=0;entryDx=0;entryDy=0;" edge="1" parent="1" source="ZFzZCjT-4XjI5NJuBLVP-41" target="ZFzZCjT-4XjI5NJuBLVP-51">
          <mxGeometry relative="1" as="geometry" />
        </mxCell>
        <mxCell id="ZFzZCjT-4XjI5NJuBLVP-41" value="redis" style="shape=cylinder3;whiteSpace=wrap;html=1;boundedLbl=1;backgroundOutline=1;size=15;strokeColor=#006600;fillColor=#FFFFFF;" vertex="1" parent="1">
          <mxGeometry x="340" y="1350" width="60" height="80" as="geometry" />
        </mxCell>
        <mxCell id="ZFzZCjT-4XjI5NJuBLVP-44" value="&lt;font style=&quot;font-size: 18px&quot;&gt;6、用户类别信息&lt;/font&gt;" style="text;html=1;strokeColor=none;fillColor=none;align=center;verticalAlign=middle;whiteSpace=wrap;rounded=0;" vertex="1" parent="1">
          <mxGeometry x="290" y="1310" width="73" height="20" as="geometry" />
        </mxCell>
        <mxCell id="ZFzZCjT-4XjI5NJuBLVP-47" value="&lt;font style=&quot;font-size: 18px&quot;&gt;计算用户分类&lt;/font&gt;" style="text;html=1;strokeColor=none;fillColor=none;align=center;verticalAlign=middle;whiteSpace=wrap;rounded=0;" vertex="1" parent="1">
          <mxGeometry x="350" y="1180" width="80" height="41" as="geometry" />
        </mxCell>
        <mxCell id="ZFzZCjT-4XjI5NJuBLVP-58" style="edgeStyle=orthogonalEdgeStyle;rounded=0;orthogonalLoop=1;jettySize=auto;html=1;exitX=0;exitY=0.5;exitDx=0;exitDy=0;" edge="1" parent="1" source="ZFzZCjT-4XjI5NJuBLVP-51" target="ZFzZCjT-4XjI5NJuBLVP-19">
          <mxGeometry relative="1" as="geometry" />
        </mxCell>
        <mxCell id="ZFzZCjT-4XjI5NJuBLVP-59" value="&lt;font style=&quot;font-size: 18px&quot;&gt;9、上报&lt;/font&gt;" style="edgeLabel;html=1;align=center;verticalAlign=middle;resizable=0;points=[];" vertex="1" connectable="0" parent="ZFzZCjT-4XjI5NJuBLVP-58">
          <mxGeometry x="-0.196" y="3" relative="1" as="geometry">
            <mxPoint as="offset" />
          </mxGeometry>
        </mxCell>
        <mxCell id="ZFzZCjT-4XjI5NJuBLVP-51" value="付费流水上报" style="rounded=1;whiteSpace=wrap;html=1;strokeColor=#006600;fillColor=#FFFFFF;" vertex="1" parent="1">
          <mxGeometry x="310" y="1470" width="120" height="60" as="geometry" />
        </mxCell>
        <mxCell id="ZFzZCjT-4XjI5NJuBLVP-54" value="Text" style="text;html=1;strokeColor=none;fillColor=none;align=center;verticalAlign=middle;whiteSpace=wrap;rounded=0;" vertex="1" parent="1">
          <mxGeometry x="560" y="1250" width="40" height="20" as="geometry" />
        </mxCell>
        <mxCell id="ZFzZCjT-4XjI5NJuBLVP-55" value="Text" style="text;html=1;strokeColor=none;fillColor=none;align=center;verticalAlign=middle;whiteSpace=wrap;rounded=0;" vertex="1" parent="1">
          <mxGeometry x="560" y="1250" width="40" height="20" as="geometry" />
        </mxCell>
        <mxCell id="ZFzZCjT-4XjI5NJuBLVP-56" value="&lt;font style=&quot;font-size: 18px&quot;&gt;7、付费流水&lt;/font&gt;" style="text;html=1;strokeColor=none;fillColor=none;align=center;verticalAlign=middle;whiteSpace=wrap;rounded=0;" vertex="1" parent="1">
          <mxGeometry x="440" y="1510" width="110" height="20" as="geometry" />
        </mxCell>
        <mxCell id="ZFzZCjT-4XjI5NJuBLVP-57" value="&lt;font style=&quot;font-size: 18px&quot;&gt;8、用户类别&lt;/font&gt;" style="text;html=1;strokeColor=none;fillColor=none;align=center;verticalAlign=middle;whiteSpace=wrap;rounded=0;" vertex="1" parent="1">
          <mxGeometry x="389" y="1440" width="141" height="20" as="geometry" />
        </mxCell>
      </root>
    </mxGraphModel>
  </diagram>
</mxfile>
